<svg width="200" height="200" viewBox="0 0 200 200" xmlns="http://www.w3.org/2000/svg">
  <!-- Pixel art fire logo -->
  <rect width="200" height="200" fill="#0d030f"/>
  
  <!-- Fire pixels -->
  <!-- Yellow/Light flames -->
  <rect x="80" y="140" width="10" height="10" fill="#fefca8"/>
  <rect x="90" y="140" width="10" height="10" fill="#fefca8"/>
  <rect x="100" y="140" width="10" height="10" fill="#fefca8"/>
  <rect x="110" y="140" width="10" height="10" fill="#fefca8"/>
  
  <rect x="70" y="130" width="10" height="10" fill="#fde471"/>
  <rect x="80" y="130" width="10" height="10" fill="#fefca8"/>
  <rect x="90" y="130" width="10" height="10" fill="#fefca8"/>
  <rect x="100" y="130" width="10" height="10" fill="#fefca8"/>
  <rect x="110" y="130" width="10" height="10" fill="#fefca8"/>
  <rect x="120" y="130" width="10" height="10" fill="#fde471"/>
  
  <!-- Orange flames -->
  <rect x="60" y="120" width="10" height="10" fill="#fd7318"/>
  <rect x="70" y="120" width="10" height="10" fill="#fde471"/>
  <rect x="80" y="120" width="10" height="10" fill="#fde471"/>
  <rect x="90" y="120" width="10" height="10" fill="#fefca8"/>
  <rect x="100" y="120" width="10" height="10" fill="#fde471"/>
  <rect x="110" y="120" width="10" height="10" fill="#fde471"/>
  <rect x="120" y="120" width="10" height="10" fill="#fd7318"/>
  <rect x="130" y="120" width="10" height="10" fill="#fd7318"/>
  
  <!-- Red flames -->
  <rect x="50" y="110" width="10" height="10" fill="#c21829"/>
  <rect x="60" y="110" width="10" height="10" fill="#fd7318"/>
  <rect x="70" y="110" width="10" height="10" fill="#fd7318"/>
  <rect x="80" y="110" width="10" height="10" fill="#fde471"/>
  <rect x="90" y="110" width="10" height="10" fill="#fde471"/>
  <rect x="100" y="110" width="10" height="10" fill="#fd7318"/>
  <rect x="110" y="110" width="10" height="10" fill="#fd7318"/>
  <rect x="120" y="110" width="10" height="10" fill="#c21829"/>
  <rect x="130" y="110" width="10" height="10" fill="#c21829"/>
  <rect x="140" y="110" width="10" height="10" fill="#c21829"/>
  
  <!-- Blue/Green tips -->
  <rect x="40" y="100" width="10" height="10" fill="#5fadfe"/>
  <rect x="50" y="100" width="10" height="10" fill="#c21829"/>
  <rect x="60" y="100" width="10" height="10" fill="#c21829"/>
  <rect x="70" y="100" width="10" height="10" fill="#fd7318"/>
  <rect x="80" y="100" width="10" height="10" fill="#fd7318"/>
  <rect x="90" y="100" width="10" height="10" fill="#fd7318"/>
  <rect x="100" y="100" width="10" height="10" fill="#c21829"/>
  <rect x="110" y="100" width="10" height="10" fill="#c21829"/>
  <rect x="120" y="100" width="10" height="10" fill="#43d6a8"/>
  <rect x="130" y="100" width="10" height="10" fill="#43d6a8"/>
  <rect x="140" y="100" width="10" height="10" fill="#5fadfe"/>
  <rect x="150" y="100" width="10" height="10" fill="#5fadfe"/>
  
  <!-- More blue/green -->
  <rect x="30" y="90" width="10" height="10" fill="#5fadfe"/>
  <rect x="40" y="90" width="10" height="10" fill="#5fadfe"/>
  <rect x="50" y="90" width="10" height="10" fill="#43d6a8"/>
  <rect x="60" y="90" width="10" height="10" fill="#c21829"/>
  <rect x="70" y="90" width="10" height="10" fill="#c21829"/>
  <rect x="80" y="90" width="10" height="10" fill="#c21829"/>
  <rect x="90" y="90" width="10" height="10" fill="#c21829"/>
  <rect x="100" y="90" width="10" height="10" fill="#43d6a8"/>
  <rect x="110" y="90" width="10" height="10" fill="#43d6a8"/>
  <rect x="120" y="90" width="10" height="10" fill="#43d6a8"/>
  <rect x="130" y="90" width="10" height="10" fill="#5fadfe"/>
  <rect x="140" y="90" width="10" height="10" fill="#5fadfe"/>
  <rect x="150" y="90" width="10" height="10" fill="#5fadfe"/>
  <rect x="160" y="90" width="10" height="10" fill="#5fadfe"/>
  
  <!-- Top flames -->
  <rect x="40" y="80" width="10" height="10" fill="#5fadfe"/>
  <rect x="50" y="80" width="10" height="10" fill="#5fadfe"/>
  <rect x="60" y="80" width="10" height="10" fill="#43d6a8"/>
  <rect x="70" y="80" width="10" height="10" fill="#43d6a8"/>
  <rect x="80" y="80" width="10" height="10" fill="#43d6a8"/>
  <rect x="90" y="80" width="10" height="10" fill="#43d6a8"/>
  <rect x="100" y="80" width="10" height="10" fill="#43d6a8"/>
  <rect x="110" y="80" width="10" height="10" fill="#43d6a8"/>
  <rect x="120" y="80" width="10" height="10" fill="#5fadfe"/>
  <rect x="130" y="80" width="10" height="10" fill="#5fadfe"/>
  <rect x="140" y="80" width="10" height="10" fill="#5fadfe"/>
  <rect x="150" y="80" width="10" height="10" fill="#5fadfe"/>
  
  <rect x="50" y="70" width="10" height="10" fill="#5fadfe"/>
  <rect x="60" y="70" width="10" height="10" fill="#5fadfe"/>
  <rect x="70" y="70" width="10" height="10" fill="#5fadfe"/>
  <rect x="80" y="70" width="10" height="10" fill="#43d6a8"/>
  <rect x="90" y="70" width="10" height="10" fill="#43d6a8"/>
  <rect x="100" y="70" width="10" height="10" fill="#5fadfe"/>
  <rect x="110" y="70" width="10" height="10" fill="#5fadfe"/>
  <rect x="120" y="70" width="10" height="10" fill="#5fadfe"/>
  <rect x="130" y="70" width="10" height="10" fill="#5fadfe"/>
  <rect x="140" y="70" width="10" height="10" fill="#5fadfe"/>
  
  <rect x="60" y="60" width="10" height="10" fill="#5fadfe"/>
  <rect x="70" y="60" width="10" height="10" fill="#5fadfe"/>
  <rect x="80" y="60" width="10" height="10" fill="#5fadfe"/>
  <rect x="90" y="60" width="10" height="10" fill="#5fadfe"/>
  <rect x="100" y="60" width="10" height="10" fill="#5fadfe"/>
  <rect x="110" y="60" width="10" height="10" fill="#5fadfe"/>
  <rect x="120" y="60" width="10" height="10" fill="#5fadfe"/>
  <rect x="130" y="60" width="10" height="10" fill="#5fadfe"/>
  
  <rect x="70" y="50" width="10" height="10" fill="#5fadfe"/>
  <rect x="80" y="50" width="10" height="10" fill="#5fadfe"/>
  <rect x="90" y="50" width="10" height="10" fill="#5fadfe"/>
  <rect x="100" y="50" width="10" height="10" fill="#5fadfe"/>
  <rect x="110" y="50" width="10" height="10" fill="#5fadfe"/>
  <rect x="120" y="50" width="10" height="10" fill="#5fadfe"/>
  
  <rect x="80" y="40" width="10" height="10" fill="#5fadfe"/>
  <rect x="90" y="40" width="10" height="10" fill="#5fadfe"/>
  <rect x="100" y="40" width="10" height="10" fill="#5fadfe"/>
  <rect x="110" y="40" width="10" height="10" fill="#5fadfe"/>
</svg>